solid wadge
facet normal              -0             -0             -1
	outer loop
		vertex           -0.2              0          -0.55
		vertex            0.1      0.0776435          -0.55
		vertex            0.1     -0.0776435          -0.55
	endloop
endfacet
facet normal              -0             -0              1
	outer loop
		vertex           -0.2              0           0.55
		vertex            0.1     -0.0776435           0.55
		vertex            0.1      0.0776435           0.55
	endloop
endfacet
facet normal       -0.250556       0.968102             -0
	outer loop
		vertex           -0.2              0          -0.55
		vertex           -0.2              0           0.55
		vertex            0.1      0.0776435          -0.55
	endloop
endfacet
facet normal       -0.250556       0.968102             -0
	outer loop
		vertex            0.1      0.0776435          -0.55
		vertex           -0.2              0           0.55
		vertex            0.1      0.0776435           0.55
	endloop
endfacet
facet normal       -0.250556      -0.968102              0
	outer loop
		vertex           -0.2              0          -0.55
		vertex            0.1     -0.0776435          -0.55
		vertex           -0.2              0           0.55
	endloop
endfacet
facet normal       -0.250556      -0.968102              0
	outer loop
		vertex            0.1     -0.0776435          -0.55
		vertex            0.1     -0.0776435           0.55
		vertex           -0.2              0           0.55
	endloop
endfacet
facet normal               1             -0             -0
	outer loop
		vertex            0.1      0.0776435          -0.55
		vertex            0.1     -0.0776435           0.55
		vertex            0.1     -0.0776435          -0.55
	endloop
endfacet
facet normal               1             -0             -0
	outer loop
		vertex            0.1      0.0776435          -0.55
		vertex            0.1      0.0776435           0.55
		vertex            0.1     -0.0776435           0.55
	endloop
endfacet
endsolidwadge
